<?xml version="1.0" encoding="UTF-8" standalone="no"?>
<svg
   xmlns:dc="http://purl.org/dc/elements/1.1/"
   xmlns:cc="http://creativecommons.org/ns#"
   xmlns:rdf="http://www.w3.org/1999/02/22-rdf-syntax-ns#"
   xmlns:svg="http://www.w3.org/2000/svg"
   xmlns="http://www.w3.org/2000/svg"
   viewBox="0 0 568.55786 268.82131"
   height="268.82132"
   width="568.55786"
   xml:space="preserve"
   id="svg29"
   version="1.1"><metadata
     id="metadata35"><rdf:RDF><cc:Work
         rdf:about=""><dc:format>image/svg+xml</dc:format><dc:type
           rdf:resource="http://purl.org/dc/dcmitype/StillImage" /><dc:title></dc:title></cc:Work></rdf:RDF></metadata><defs
     id="defs33"><clipPath
       id="clipPath479"
       clipPathUnits="userSpaceOnUse"><path
         id="path477"
         d="m 62.5,579.5 h 428 V 377 h -428 z" /></clipPath></defs><g
     transform="matrix(1.3333333,0,0,-1.3333333,-84.511556,772.11398)"
     id="g37"><g
       transform="scale(1.0006,0.9994)"
       id="g207"><path
         id="path209"
         style="fill:none;stroke:#000000;stroke-width:2.23600006;stroke-linecap:round;stroke-linejoin:miter;stroke-miterlimit:2.61299992;stroke-dasharray:none;stroke-opacity:1"
         d="m 431.244,394.398 h 4.91 m -4.71,66.446 h 4.91 m -4.695,-19.304 h 4.91 m -4.863,41.977 h 4.91" /></g><text
       id="text215"
       style="font-variant:normal;font-weight:normal;font-size:7.76809978px;font-family:Arial;-inkscape-font-specification:Arial;writing-mode:lr-tb;fill:#000000;fill-opacity:1;fill-rule:nonzero;stroke:none"
       transform="matrix(1,0,0,-0.99882854,440.4261,438.1482)"><tspan
         id="tspan211"
         y="0"
         x="0 5.6077914 9.9260778 12.084833 18.562653 22.880939 27.199224 33.677044 36.263046 40.581329 44.899616">Dataout(12)</tspan><tspan
         id="tspan213"
         y="-19.464527"
         x="0.65485084 5.8353968 14.899216 17.485216 21.803503 26.12179">AF(13)</tspan></text>
<text
       id="text219"
       style="font-variant:normal;font-weight:normal;font-size:7.76609993px;font-family:Arial;-inkscape-font-specification:Arial;writing-mode:lr-tb;fill:#000000;fill-opacity:1;fill-rule:nonzero;stroke:none"
       transform="matrix(1,0,0,-0.99908577,440.8532,391.0448)"><tspan
         id="tspan217"
         y="0"
         x="0 6.0420256 11.64915 19.416027 22.002138 26.320089 30.638041">GND(10)</tspan></text>
<path
       id="path221"
       style="fill:none;stroke:#000000;stroke-width:0.55900002;stroke-linecap:butt;stroke-linejoin:miter;stroke-miterlimit:2.61299992;stroke-dasharray:none;stroke-opacity:1"
       d="m 179.078,431.474 h 34.636 v -24.43 h -34.636 z" /><text
       id="text227"
       style="font-variant:normal;font-weight:normal;font-size:6.21409988px;font-family:Arial;-inkscape-font-specification:Arial;writing-mode:lr-tb;fill:#000000;fill-opacity:1;fill-rule:nonzero;stroke:none"
       transform="matrix(1,0,0,-0.99884134,180.4113,425.2258)"><tspan
         id="tspan223"
         y="0"
         x="0 4.1429405 8.0590658 17.374624 20.827799 24.280973 27.73415">SAWband</tspan><tspan
         id="tspan225"
         y="6.2140999"
         x="2.3048098 5.7586064 9.2124033 12.318211 17.149673 18.87595 20.254238 21.632524 23.358803 26.812599">passfilter</tspan></text>
<path
       id="path229"
       style="fill:none;stroke:#000000;stroke-width:0.55900002;stroke-linecap:butt;stroke-linejoin:miter;stroke-miterlimit:2.61299992;stroke-dasharray:none;stroke-opacity:1"
       d="m 206.008,409.394 h -19.59 v 7.951 m 6.34,-8.088 c 0.413,1.615 0.503,4.876 1.265,4.876 1.356,0 2.712,0 4.068,0 1.02,0 0.852,-3.261 1.278,-4.876 m 14.822,68.372 -35.745,0.153 17.117,-36.001 z" /><text
       id="text235"
       style="font-variant:normal;font-weight:normal;font-size:6.21386766px;font-family:Arial;-inkscape-font-specification:Arial;writing-mode:lr-tb;fill:#000000;fill-opacity:1;fill-rule:nonzero;stroke:none"
       transform="matrix(0.99990863,0.01350206,0.01351815,-0.99874993,189.8242,472.4694)"><tspan
         id="tspan231"
         y="0"
         x="0 4.1427855 6.2101393 11.390019">Pre-</tspan><tspan
         id="tspan233"
         y="6.2138677"
         x="-5.0052705 -1.5516028 3.6233063 7.0769739 8.4552097 9.8334455 11.559658 12.937894 16.391562">amplifier</tspan></text>
<path
       id="path237"
       style="fill:none;stroke:#000000;stroke-width:0.55900002;stroke-linecap:butt;stroke-linejoin:miter;stroke-miterlimit:2.61299992;stroke-dasharray:none;stroke-opacity:1"
       d="m 229.511,427.623 c -4.766,-4.76 -4.766,-12.524 0,-17.284 4.765,-4.76 12.539,-4.76 17.304,0 4.765,4.76 4.765,12.524 0,17.284 -4.765,4.759 -12.539,4.759 -17.304,0 z m -0.073,-0.017 17.304,-17.284 m 0.034,17.284 L 229.45,410.3 m -12.566,67.401 h 43.679 v -34.63 h -43.679 z m 14.622,-29.799 c 1.265,1.211 2.101,2.454 3.365,2.454 2.529,0 4.222,-4.908 6.751,-4.908 1.265,0 2.101,1.243 3.365,2.454" /><text
       id="text247"
       style="font-variant:normal;font-weight:normal;font-size:6.21409988px;font-family:Arial;-inkscape-font-specification:Arial;writing-mode:lr-tb;fill:#000000;fill-opacity:1;fill-rule:nonzero;stroke:none"
       transform="matrix(1,0,0,-0.99884134,227.3649,471.4315)"><tspan
         id="tspan239"
         y="0"
         x="0 3.452554 6.905108 12.08456 17.258419 21.742514">418MHz</tspan><tspan
         id="tspan241"
         y="6.2140999"
         x="-9.7275524 -5.5852332 -1.6697286 5.9183087 9.0228729 12.475428 15.927981 17.653015 19.719826 23.172379 24.549423 25.926468 29.379023">SAWcontrolled</tspan><tspan
         id="tspan243"
         y="12.4282"
         x="-1.7306268 1.7219272 4.8264914 8.2790451 11.7316 15.184154 18.288717 21.741272">1stLocal</tspan><tspan
         id="tspan245"
         y="18.6423"
         x="-1.553525 1.9002718 5.0060792 8.111886 9.4901733 10.868461 12.246748 15.700545 17.426823 20.880619">oscillator</tspan></text>
<path
       id="path249"
       style="fill:none;stroke:#000000;stroke-width:0.55900002;stroke-linecap:butt;stroke-linejoin:miter;stroke-miterlimit:2.61299992;stroke-dasharray:none;stroke-opacity:1"
       d="m 238.169,442.642 v -11.251 m 23.356,-0.154 h 37.176 v -26.403 h -37.176 z" /><text
       id="text257"
       style="font-variant:normal;font-weight:normal;font-size:6.21409988px;font-family:Arial;-inkscape-font-specification:Arial;writing-mode:lr-tb;fill:#000000;fill-opacity:1;fill-rule:nonzero;stroke:none"
       transform="matrix(1,0,0,-0.99884134,268.0525,422.3309)"><tspan
         id="tspan251"
         y="0"
         x="0 8.637599 13.810837 15.188503 18.29369 21.746864">2mixer</tspan><tspan
         id="tspan253"
         y="6.2140999"
         x="-3.4519327 -1.7256556 3.7955723 7.2493691 12.424472 15.878268 17.256556 18.634844 20.36112 21.739407 25.193205">IFamplifier</tspan><tspan
         id="tspan255"
         y="12.4282"
         x="-5.356554 -1.9033788 1.5497966 6.7242775 10.177453 13.630629 17.083803 18.46147 21.914644 23.640301 27.093475">demodulator</tspan></text>
<text
       id="text261"
       style="font-variant:normal;font-weight:normal;font-size:3.10710001px;font-family:Arial;-inkscape-font-specification:Arial;writing-mode:lr-tb;fill:#000000;fill-opacity:1;fill-rule:nonzero;stroke:none"
       transform="matrix(1,0,0,-0.99880918,271.5075,425.4343)"><tspan
         id="tspan259"
         y="0"
         x="0 1.7275476">nd</tspan></text>
<path
       id="path263"
       style="fill:none;stroke:#000000;stroke-width:0.55900002;stroke-linecap:butt;stroke-linejoin:miter;stroke-miterlimit:2.61299992;stroke-dasharray:none;stroke-opacity:1"
       d="m 265.12,459.95 h 33.67 v -19.567 h -33.67 z" /><text
       id="text271"
       style="font-variant:normal;font-weight:normal;font-size:6.21409988px;font-family:Arial;-inkscape-font-specification:Arial;writing-mode:lr-tb;fill:#000000;fill-opacity:1;fill-rule:nonzero;stroke:none"
       transform="matrix(1,0,0,-0.99884134,270.9101,454.0234)"><tspan
         id="tspan265"
         y="0"
         x="0 8.637599 10.016508 13.469683 16.574869 20.028044">2local</tspan><tspan
         id="tspan267"
         y="6.2140999"
         x="-1.5504179 1.9033788 5.0091858 8.1149931 9.4932804 10.871568 12.249855 15.703652 17.42993 20.883726">oscillator</tspan><tspan
         id="tspan269"
         y="12.4282"
         x="-4.3156924 -0.86251706 2.5906582 4.3163137 7.7694893 12.948941 18.123423 22.608139">15.82MHz</tspan></text>
<text
       id="text275"
       style="font-variant:normal;font-weight:normal;font-size:3.10710001px;font-family:Arial;-inkscape-font-specification:Arial;writing-mode:lr-tb;fill:#000000;fill-opacity:1;fill-rule:nonzero;stroke:none"
       transform="matrix(1,0,0,-0.99880918,274.3651,457.1268)"><tspan
         id="tspan273"
         y="0"
         x="0 1.7275476">nd</tspan></text>
<path
       id="path277"
       style="fill:none;stroke:#000000;stroke-width:0.55900002;stroke-linecap:butt;stroke-linejoin:miter;stroke-miterlimit:2.61299992;stroke-dasharray:none;stroke-opacity:1"
       d="M 281.438,440.683 V 431.52" /><text
       id="text281"
       style="font-variant:normal;font-weight:normal;font-size:6.38290024px;font-family:Arial;-inkscape-font-specification:Arial;writing-mode:lr-tb;fill:#000000;fill-opacity:1;fill-rule:nonzero;stroke:none"
       transform="matrix(1,0,0,-0.97242633,314.1465,430.5077)"><tspan
         id="tspan279"
         y="0"
         x="0 3.5508072 7.1016145 10.294979 14.905348">35kHz</tspan></text>
<path
       id="path283"
       style="fill:none;stroke:#000000;stroke-width:0.55900002;stroke-linecap:butt;stroke-linejoin:miter;stroke-miterlimit:2.61299992;stroke-dasharray:none;stroke-opacity:1"
       d="m 309.135,437.493 h 28.45 v -19.536 h -28.45 z m 3.747,-7.876 v -7.92 h 21.425 m -21.425,6.077 c 4.073,0 6.903,0 11.008,0 1.834,0 2.052,-4.038 2.456,-6.088 m -27.614,6.032 h 10.417" /><text
       id="text287"
       style="font-variant:normal;font-weight:normal;font-size:6.21409988px;font-family:Arial;-inkscape-font-specification:Arial;writing-mode:lr-tb;fill:#000000;fill-opacity:1;fill-rule:nonzero;stroke:none"
       transform="matrix(1,0,0,-0.99884134,300.1064,430.0205)"><tspan
         id="tspan285"
         y="0"
         x="0 4.1423192">AF</tspan></text>
<path
       id="path289"
       style="fill:none;stroke:#000000;stroke-width:0.55900002;stroke-linecap:butt;stroke-linejoin:miter;stroke-miterlimit:2.61299992;stroke-dasharray:none;stroke-opacity:1"
       d="m 337.484,429.399 h 5.582 m -0.039,12.619 v -24.443 l 23.126,12.206 z" /><text
       id="text295"
       style="font-variant:normal;font-weight:normal;font-size:6.21409988px;font-family:Arial;-inkscape-font-specification:Arial;writing-mode:lr-tb;fill:#000000;fill-opacity:1;fill-rule:nonzero;stroke:none"
       transform="matrix(1,0,0,-0.99884134,344.24,427.3893)"><tspan
         id="tspan291"
         y="0"
         x="0 4.1423192 7.594873 9.2142677 10.939923 14.392477">Buffer</tspan><tspan
         id="tspan293"
         y="26.919481"
         x="-118.12258 -110.52336 -105.35075 -103.9737 -100.86913 -97.41658">1mixer</tspan></text>
<text
       id="text299"
       style="font-variant:normal;font-weight:normal;font-size:3.10710001px;font-family:Arial;-inkscape-font-specification:Arial;writing-mode:lr-tb;fill:#000000;fill-opacity:1;fill-rule:nonzero;stroke:none"
       transform="matrix(1,0,0,-0.99880918,229.5717,403.6048)"><tspan
         id="tspan297"
         y="0"
         x="0 1.55355">st</tspan></text>
<path
       id="path301"
       style="fill:none;stroke:#000000;stroke-width:0.55900002;stroke-linecap:butt;stroke-linejoin:miter;stroke-miterlimit:2.61299992;stroke-dasharray:none;stroke-opacity:1"
       d="M 395.834,451.334 V 430.96 l 22.891,10.174 z" /><text
       id="text305"
       style="font-variant:normal;font-weight:normal;font-size:6.20690012px;font-family:Arial;-inkscape-font-specification:Arial;writing-mode:lr-tb;fill:#000000;fill-opacity:1;fill-rule:nonzero;stroke:none"
       transform="matrix(0.99925889,0,0,-1,372.626,452.2989)"><tspan
         id="tspan303"
         y="0"
         x="0 4.1400023 7.5910387 11.042075 14.493112 16.21863 17.596561 20.700012 25.877188 30.358568 33.809605 35.535122 40.712299 44.852303 46.230232 47.608166 50.711613 54.162651">AdaptiveDataSlicer</tspan></text>
<text
       id="text311"
       style="font-variant:normal;font-weight:bold;font-size:3.45499992px;font-family:CenturySchoolbook;-inkscape-font-specification:CenturySchoolbook-Bold;writing-mode:lr-tb;fill:#000000;fill-opacity:1;fill-rule:nonzero;stroke:none"
       transform="matrix(1,0,0,-0.99884226,396.7424,447.5544)"><tspan
         id="tspan307"
         y="0"
         x="0">-</tspan><tspan
         id="tspan309"
         y="14.358289"
         x="-0.040423501">+</tspan></text>
<g
       transform="scale(1.0006,0.9994)"
       id="g313"><path
         id="path315"
         style="fill:none;stroke:#000000;stroke-width:1.11800003;stroke-linecap:butt;stroke-linejoin:miter;stroke-miterlimit:2.61299992;stroke-dasharray:none;stroke-opacity:1"
         d="m 385.316,425.611 h 11.004 m -11.004,-2.424 h 11.004" /></g><path
       id="path317"
       style="fill:none;stroke:#000000;stroke-width:0.55900002;stroke-linecap:butt;stroke-linejoin:miter;stroke-miterlimit:2.61299992;stroke-dasharray:none;stroke-opacity:1"
       d="m 395.422,434.222 h -9.166 m -9.769,1.765 h 9.795 v -4.218 h -9.795 z m 36.137,114.09 h 9.795 v -4.218 h -9.795 z M 390.92,422.408 v -7.341 m -2.353,-0.345 h 5.313 m -1.678,0.111 -1.062,-2.402 m 2.572,2.402 -1.062,-2.402 m -2.125,2.402 -1.063,-2.402 m -0.447,2.402 -1.063,-2.402 M 182.448,522.259 h 30.443 v -30.05 h -30.443 z m -40.003,2.528 h 30.443 v -32.591 h -30.443 z" /><text
       id="text325"
       style="font-variant:normal;font-weight:normal;font-size:6.20690012px;font-family:Arial;-inkscape-font-specification:Arial;writing-mode:lr-tb;fill:#000000;fill-opacity:1;fill-rule:nonzero;stroke:none"
       transform="matrix(0.96076947,0,0,-1,145.4626,518.9505)"><tspan
         id="tspan319"
         y="0"
         x="0 3.4528985 6.905797 12.084834 17.257044 21.740288">433MHz</tspan><tspan
         id="tspan321"
         y="6.2069001"
         x="5.5148306 8.9677296 12.420628 15.873526">band</tspan><tspan
         id="tspan323"
         y="12.4138"
         x="-0.86275911 2.5895188 6.0417967 9.1464882 13.977939 15.704699 17.083872 18.463045 20.189804 23.642082">passfilter</tspan></text>
<path
       id="path327"
       style="fill:none;stroke:#000000;stroke-width:0.55900002;stroke-linecap:butt;stroke-linejoin:miter;stroke-miterlimit:2.61299992;stroke-dasharray:none;stroke-opacity:1"
       d="m 168.456,495.185 h -21.332 v 7.951 m 116.88,14.487 v -24.444 l -29.385,12.206 z" /><text
       id="text331"
       style="font-variant:normal;font-weight:normal;font-size:6.21409988px;font-family:Arial;-inkscape-font-specification:Arial;writing-mode:lr-tb;fill:#000000;fill-opacity:1;fill-rule:nonzero;stroke:none"
       transform="matrix(1,0,0,-0.99884134,245.5622,504.3203)"><tspan
         id="tspan329"
         y="0"
         x="0 4.1429405 7.5961161 9.216753 10.94303 14.396206">Buffer</tspan></text>
<path
       id="path333"
       style="fill:none;stroke:#000000;stroke-width:0.55900002;stroke-linecap:butt;stroke-linejoin:miter;stroke-miterlimit:2.61299992;stroke-dasharray:none;stroke-opacity:1"
       d="m 293.29,515.769 c -4.766,-4.76 -4.766,-12.524 0,-17.284 4.765,-4.76 12.538,-4.76 17.304,0 4.765,4.76 4.765,12.524 0,17.284 -4.766,4.76 -12.539,4.76 -17.304,0 z" /><g
       transform="scale(1.0006,0.9994)"
       id="g335"><path
         id="path337"
         style="fill:none;stroke:#000000;stroke-width:1.11800003;stroke-linecap:butt;stroke-linejoin:miter;stroke-miterlimit:2.61299992;stroke-dasharray:none;stroke-opacity:1"
         d="m 133.123,517.094 v -10.411 m -2.681,10.411 v -10.411" /></g><path
       id="path339"
       style="fill:none;stroke:#000000;stroke-width:0.55900002;stroke-linecap:butt;stroke-linejoin:miter;stroke-miterlimit:2.61299992;stroke-dasharray:none;stroke-opacity:1"
       d="m 286.421,523.596 h 43.377 v -44.373 h -43.377 z m 8.138,-16.502 c 1.265,1.211 2.101,2.454 3.365,2.454 2.529,0 4.222,-4.908 6.751,-4.908 1.265,0 2.1,1.243 3.365,2.454" /><text
       id="text345"
       style="font-variant:normal;font-weight:normal;font-size:6.22520018px;font-family:Arial;-inkscape-font-specification:Arial;writing-mode:lr-tb;fill:#000000;fill-opacity:1;fill-rule:nonzero;stroke:none"
       transform="matrix(1,0,0,-0.99706034,286.969,486.8443)"><tspan
         id="tspan341"
         y="0"
         x="0 4.1522083 8.0728397 13.949429 16.022419 19.135019 20.865625 24.326836 27.788048 29.170042 30.552036 31.934031 35.046631 38.507843">SAW-stabilised</tspan><tspan
         id="tspan343"
         y="6.2252002"
         x="8.6530275 12.114239 15.226839 18.339439 19.721434 21.103428 22.485422 25.946634 27.677238 31.138451">oscillator</tspan></text>
<path
       id="path347"
       style="fill:none;stroke:#000000;stroke-width:0.55900002;stroke-linecap:butt;stroke-linejoin:miter;stroke-miterlimit:2.61299992;stroke-dasharray:none;stroke-opacity:1"
       d="m 344.388,518.543 h 33.246 v -29.566 h -33.246 z" /><text
       id="text353"
       style="font-variant:normal;font-weight:normal;font-size:6.21409988px;font-family:Arial;-inkscape-font-specification:Arial;writing-mode:lr-tb;fill:#000000;fill-opacity:1;fill-rule:nonzero;stroke:none"
       transform="matrix(1,0,0,-0.99884134,346.5887,512.0353)"><tspan
         id="tspan349"
         y="0"
         x="0 3.4531753 8.6326275 11.737814 16.22253 21.053991">44kHz2</tspan><tspan
         id="tspan351"
         y="6.2140999"
         x="0 3.4531753 5.5206065 8.9737816 12.426957 16.221287 19.674461 23.817402">orderLPF</tspan></text>
<text
       id="text357"
       style="font-variant:normal;font-weight:normal;font-size:3.10710001px;font-family:Arial;-inkscape-font-specification:Arial;writing-mode:lr-tb;fill:#000000;fill-opacity:1;fill-rule:nonzero;stroke:none"
       transform="matrix(1,0,0,-0.99880918,371.1096,515.1387)"><tspan
         id="tspan355"
         y="0"
         x="0 1.7275476">nd</tspan></text>
<path
       id="path359"
       style="fill:none;stroke:#000000;stroke-width:0.55900002;stroke-linecap:butt;stroke-linejoin:miter;stroke-miterlimit:2.61299992;stroke-dasharray:none;stroke-opacity:1"
       d="m 330.059,503.473 h 14.335 m 4.593,-3.109 v -7.92 h 21.425 m -21.425,6.076 c 4.073,0 6.903,0 11.008,0 1.834,0 2.052,-4.037 2.456,-6.087" /><g
       transform="scale(1.0006,0.9994)"
       id="g361"><path
         id="path363"
         style="fill:none;stroke:#000000;stroke-width:2.23600006;stroke-linecap:round;stroke-linejoin:miter;stroke-miterlimit:2.61299992;stroke-dasharray:none;stroke-opacity:1"
         d="m 115.154,511.798 h 4.91 m -4.655,52.757 h 4.91 m 311.182,-59.32 h 4.91 m -4.909,21.05 h 4.91 M 114.874,495.093 h 4.91 m -4.641,-17.627 h 4.91 m -4.777,-47.8 h 4.91 m -5.252,-17.327 h 4.91 m -4.73,50.515 h 4.91 m -5.015,-17.628 h 4.911 m -4.747,-52.173 h 4.91 m 311.338,155.13 h 4.91 m -5.375,17.421 h 4.91" /></g><text
       id="text373"
       style="font-variant:normal;font-weight:normal;font-size:7.76809978px;font-family:Arial;-inkscape-font-specification:Arial;writing-mode:lr-tb;fill:#000000;fill-opacity:1;fill-rule:nonzero;stroke:none"
       transform="matrix(1,0,0,-0.99882854,441.0652,480.4536)"><tspan
         id="tspan365"
         y="0"
         x="0 4.7455325 9.9260778 19.852156 22.438156 26.756443 31.07473">TXD(14)</tspan><tspan
         id="tspan367"
         y="-20.582357"
         x="-0.16157648 4.5839558 11.923257 15.80653 20.124817 21.848558 26.166845 30.050117 34.368404 36.954407 41.272694 45.590981">TXselect(15)</tspan><tspan
         id="tspan369"
         y="-44.414112"
         x="-0.18410397 5.4236875 12.762988 16.646261 20.964548 22.68829 27.006577 30.889849 35.208138 37.794136 42.112423 46.43071">RXselect(16)</tspan><tspan
         id="tspan371"
         y="-65.558884"
         x="0.21206912 5.3926148 9.2758884 17.477448 20.063448 24.381735 28.700022">Vcc(17)</tspan></text>
<path
       id="path375"
       style="fill:none;stroke:#000000;stroke-width:0.55900002;stroke-linecap:butt;stroke-linejoin:miter;stroke-miterlimit:2.61299992;stroke-dasharray:none;stroke-opacity:1"
       d="m 319.637,509.467 h 8.781 m -8.781,-2.178 h 8.781 m -4.362,0 -4.419,-6.592 h 8.781 z m 0,6.591 v -4.413 m 0,-8.77 v -4.413 m -190.854,15.239 h 9.287 m -22.291,-0.032 h 9.941 m 259.846,-45.323 h 5.313 m -1.678,0.065 -1.062,-1.402 m 2.572,1.402 -1.062,-1.402 m -2.126,1.402 -1.062,-1.402 m -0.448,1.402 -1.062,-1.402 m 3.118,4.717 v -3.136 m -144.445,16.005 h 5.313 m -1.678,0.047 -1.062,-1.014 m 2.572,1.014 -1.062,-1.014 m -2.125,1.014 -1.063,-1.014 m -0.447,1.014 -1.063,-1.014 m -116.261,67.974 h 5.313 m -1.678,0.048 -1.063,-1.015 m 2.573,1.015 -1.063,-1.015 m -2.125,1.015 -1.063,-1.015 m -0.447,1.015 -1.063,-1.015 m 3.479,-102.314 h 5.313 m -1.677,0.048 -1.063,-1.015 m 2.573,1.015 -1.063,-1.015 m -2.125,1.015 -1.063,-1.015 m -0.447,1.015 -1.063,-1.015 m -0.357,-62.614 h 5.313 m -1.678,0.047 -1.063,-1.014 m 2.573,1.014 -1.063,-1.014 m -2.125,1.014 -1.062,-1.014 m -0.448,1.014 -1.063,-1.014 m -3.078,103.348 h 5.313 m -1.678,0.047 -1.063,-1.015 m 2.573,1.015 -1.063,-1.015 m -2.125,1.015 -1.063,-1.015 m -0.447,1.015 -1.063,-1.015 M 234.797,505.5 h -22.709 m 38.487,-6.513 v -16.609 m -132.197,12.399 h 24.458 m 230.561,60.865 h 25.068 V 531.69 h -25.068 z" /><text
       id="text379"
       style="font-variant:normal;font-weight:normal;font-size:6.21400023px;font-family:Arial;-inkscape-font-specification:Arial;writing-mode:lr-tb;fill:#000000;fill-opacity:1;fill-rule:nonzero;stroke:none"
       transform="matrix(1,0,0,-0.99882523,411.7034,540.4893)"><tspan
         id="tspan377"
         y="0"
         x="0 3.4531198">10</tspan></text>
<text
       id="text383"
       style="font-variant:normal;font-weight:normal;font-size:6.21400023px;font-family:Symbol;-inkscape-font-specification:Symbol;writing-mode:lr-tb;fill:#000000;fill-opacity:1;fill-rule:nonzero;stroke:none"
       transform="matrix(1,0,0,-0.99882523,418.61337,540.4893)"><tspan
         id="tspan381"
         y="0"
         x="0">Ω</tspan></text>
<text
       id="text387"
       style="font-variant:normal;font-weight:normal;font-size:6.21400023px;font-family:Arial;-inkscape-font-specification:Arial;writing-mode:lr-tb;fill:#000000;fill-opacity:1;fill-rule:nonzero;stroke:none"
       transform="matrix(1,0,0,-0.99882523,387.74222,559.83869)"><tspan
         id="tspan385"
         y="0"
         x="0 3.4531198 5.1787477 12.104251">2.2F</tspan></text>
<text
       id="text391"
       style="font-variant:normal;font-weight:normal;font-size:6.21400023px;font-family:Symbol;-inkscape-font-specification:Symbol;writing-mode:lr-tb;fill:#000000;fill-opacity:1;fill-rule:nonzero;stroke:none"
       transform="matrix(1,0,0,-0.99882523,396.37968,559.83869)"><tspan
         id="tspan389"
         y="0"
         x="0">µ</tspan></text>
<text
       id="text403"
       style="font-variant:normal;font-weight:normal;font-size:6.21400023px;font-family:Arial;-inkscape-font-specification:Arial;writing-mode:lr-tb;fill:#000000;fill-opacity:1;fill-rule:nonzero;stroke:none"
       transform="matrix(1,0,0,-0.99882523,376.56137,548.36622)"><tspan
         id="tspan393"
         y="0"
         x="0 3.7942684 7.9365206 9.6615276 14.14555">TX/RX</tspan><tspan
         id="tspan395"
         y="6.9422808"
         x="0 4.1422524 7.5947509 11.047249 14.499747 15.87677">Supply</tspan><tspan
         id="tspan397"
         y="13.884562"
         x="0 4.1422524 8.6262751 10.003297 11.728304 14.832818">Switch</tspan><tspan
         id="tspan399"
         y="32.529671"
         x="-188.88571 -185.09145 -180.94919 -179.22418 -174.74016">TX/RX</tspan><tspan
         id="tspan401"
         y="39.471951"
         x="-188.36685 -185.26233 -180.77831 -179.40129 -177.67628 -174.57176">switch</tspan></text>
<text
       id="text407"
       style="font-variant:normal;font-weight:normal;font-size:6.21400023px;font-family:AvantGardeBkBT;-inkscape-font-specification:AvantGardeBkBT;writing-mode:lr-tb;fill:#000000;fill-opacity:1;fill-rule:nonzero;stroke:none"
       transform="matrix(1,0,0,-0.99882523,396.32686,472.39435)"><tspan
         id="tspan405"
         y="0"
         x="0 3.5084243 7.0168486">10k</tspan></text>
<text
       id="text411"
       style="font-variant:normal;font-weight:normal;font-size:6.21400023px;font-family:Symbol;-inkscape-font-specification:Symbol;writing-mode:lr-tb;fill:#000000;fill-opacity:1;fill-rule:nonzero;stroke:none"
       transform="matrix(1,0,0,-0.99882523,405.92127,472.39435)"><tspan
         id="tspan409"
         y="0"
         x="0">Ω</tspan></text>
<path
       id="path413"
       style="fill:none;stroke:#000000;stroke-width:0.55900002;stroke-linecap:butt;stroke-linejoin:miter;stroke-miterlimit:2.61299992;stroke-dasharray:none;stroke-opacity:1"
       d="m 131.79,494.844 v -9.641" /><path
       id="path415"
       style="fill:#000000;fill-opacity:1;fill-rule:evenodd;stroke:none"
       d="m 133.356,494.844 c 0,0.861 -0.703,1.565 -1.566,1.565 -0.863,0 -1.566,-0.704 -1.566,-1.565 0,-0.86 0.703,-1.564 1.566,-1.564 0.863,0 1.566,0.704 1.566,1.564" /><path
       id="path417"
       style="fill:none;stroke:#000000;stroke-width:0.55900002;stroke-linecap:butt;stroke-linejoin:miter;stroke-miterlimit:2.61299992;stroke-dasharray:none;stroke-opacity:1"
       d="m 182.184,504.934 h -8.995 m 23.278,21.308 v 10.276" /><path
       id="path419"
       style="fill:#000000;fill-opacity:1;fill-rule:evenodd;stroke:none"
       d="m 194.42,526.564 2.047,-3.716 2.046,3.716 h -4.093" /><path
       id="path421"
       style="fill:none;stroke:#000000;stroke-width:0.55900002;stroke-linecap:butt;stroke-linejoin:miter;stroke-miterlimit:2.61299992;stroke-dasharray:none;stroke-opacity:1"
       d="m 264.095,505.531 h 22.448 m -74.004,-0.033 h -15.983" /><path
       id="path423"
       style="fill:#000000;fill-opacity:1;fill-rule:evenodd;stroke:none"
       d="m 196.556,503.934 c -0.861,0 -1.566,0.702 -1.566,1.564 0,0.862 0.705,1.564 1.566,1.564 0.861,0 1.566,-0.702 1.566,-1.564 0,-0.862 -0.705,-1.564 -1.566,-1.564" /><path
       id="path425"
       style="fill:none;stroke:#000000;stroke-width:0.55900002;stroke-linecap:butt;stroke-linejoin:miter;stroke-miterlimit:2.61299992;stroke-dasharray:none;stroke-opacity:1"
       d="M 195.618,441.996 V 431.887 M 225.93,418.158 H 213.889" /><g
       transform="scale(1.0006,0.9994)"
       id="g427"><path
         id="path429"
         style="fill:none;stroke:#000000;stroke-width:2.23600006;stroke-linecap:round;stroke-linejoin:miter;stroke-miterlimit:2.61299992;stroke-dasharray:none;stroke-opacity:1"
         d="m 431.321,419.392 h 4.972" /></g><text
       id="text433"
       style="font-variant:normal;font-weight:normal;font-size:7.76809978px;font-family:Arial;-inkscape-font-specification:Arial;writing-mode:lr-tb;fill:#000000;fill-opacity:1;fill-rule:nonzero;stroke:none"
       transform="matrix(1,0,0,-0.99882854,440.5388,416.0473)"><tspan
         id="tspan431"
         y="0"
         x="0 5.6077914 15.53387 18.119869 21.865648 26.183935">CD(11)</tspan></text>
<path
       id="path435"
       style="fill:none;stroke:#000000;stroke-width:0.55900002;stroke-linecap:butt;stroke-linejoin:miter;stroke-miterlimit:2.61299992;stroke-dasharray:none;stroke-opacity:1"
       d="m 406.755,384.683 h 5.313 m -1.678,0.067 -1.063,-1.446 m 2.573,1.446 -1.063,-1.446 m -2.125,1.446 -1.062,-1.446 m -0.448,1.446 -1.062,-1.446 m 2.622,13.433 v 9.796 m 0.329,-18.824 v -3.234 m -5.936,25.72 5.866,-3.906 m -0.212,16.4 v -9.569 l -3.747,-2.09" /><path
       id="path437"
       style="fill:#000000;fill-opacity:1;fill-rule:evenodd;stroke:none"
       d="m 410.375,424.253 v -1.564 l -1.566,-1.564 -1.566,1.564 v 1.564 l 1.566,-1.564 1.566,1.564" /><path
       id="path439"
       style="fill:#000000;fill-opacity:1;fill-rule:evenodd;stroke:none"
       d="m 403.313,410.055 2.267,0.103 -0.989,1.77 -1.278,-1.873" /><text
       id="text443"
       style="font-variant:normal;font-weight:normal;font-size:6.21400023px;font-family:Arial;-inkscape-font-specification:Arial;writing-mode:lr-tb;fill:#000000;fill-opacity:1;fill-rule:nonzero;stroke:none"
       transform="matrix(1,0,0,-0.99882523,390.9585,390.1387)"><tspan
         id="tspan441"
         y="0"
         x="0 3.4531198 6.9062395">47k</tspan></text>
<text
       id="text447"
       style="font-variant:normal;font-weight:normal;font-size:6.21400023px;font-family:Symbol;-inkscape-font-specification:Symbol;writing-mode:lr-tb;fill:#000000;fill-opacity:1;fill-rule:nonzero;stroke:none"
       transform="matrix(1,0,0,-0.99882523,400.97547,390.1387)"><tspan
         id="tspan445"
         y="0"
         x="0">Ω</tspan></text>
<path
       id="path449"
       style="fill:none;stroke:#000000;stroke-width:0.55900002;stroke-linecap:butt;stroke-linejoin:miter;stroke-miterlimit:2.61299992;stroke-dasharray:none;stroke-opacity:1"
       d="m 405.133,414.906 c 2.79,0 5.065,-2.192 5.065,-4.881 0,-2.688 -2.275,-4.88 -5.065,-4.88 -2.789,0 -5.065,2.192 -5.065,4.88 0,2.689 2.276,4.881 5.065,4.881 z m -1.916,-0.055 v -9.044 m -29.926,143.797 h -14.123" /><path
       id="path451"
       style="fill:#000000;fill-opacity:1;fill-rule:evenodd;stroke:none"
       d="m 359.49,547.559 -3.721,2.045 3.721,2.044 v -4.089" /><path
       id="path453"
       style="fill:none;stroke:#000000;stroke-width:0.55900002;stroke-linecap:butt;stroke-linejoin:miter;stroke-miterlimit:2.61299992;stroke-dasharray:none;stroke-opacity:1"
       d="M 373.601,536.796 H 359.478" /><path
       id="path455"
       style="fill:#000000;fill-opacity:1;fill-rule:evenodd;stroke:none"
       d="m 359.8,534.752 -3.721,2.044 3.721,2.045 v -4.089" /><text
       id="text459"
       style="font-variant:normal;font-weight:normal;font-size:6.21400023px;font-family:Arial;-inkscape-font-specification:Arial;writing-mode:lr-tb;fill:#000000;fill-opacity:1;fill-rule:nonzero;stroke:none"
       transform="matrix(1,0,0,-0.99882523,346.8499,548.5006)"><tspan
         id="tspan457"
         y="0"
         x="0">V</tspan></text>
<text
       id="text463"
       style="font-variant:normal;font-weight:normal;font-size:3.10710001px;font-family:Arial;-inkscape-font-specification:Arial;writing-mode:lr-tb;fill:#000000;fill-opacity:1;fill-rule:nonzero;stroke:none"
       transform="matrix(1,0,0,-0.99880918,350.9946,547.2594)"><tspan
         id="tspan461"
         y="0"
         x="0 1.8984381">TX</tspan></text>
<text
       id="text467"
       style="font-variant:normal;font-weight:normal;font-size:6.21400023px;font-family:Arial;-inkscape-font-specification:Arial;writing-mode:lr-tb;fill:#000000;fill-opacity:1;fill-rule:nonzero;stroke:none"
       transform="matrix(1,0,0,-0.99882523,193.3012,537.407)"><tspan
         id="tspan465"
         y="0"
         x="0">V</tspan></text>
<text
       id="text471"
       style="font-variant:normal;font-weight:normal;font-size:3.10710001px;font-family:Arial;-inkscape-font-specification:Arial;writing-mode:lr-tb;fill:#000000;fill-opacity:1;fill-rule:nonzero;stroke:none"
       transform="matrix(1,0,0,-0.99880918,197.4459,536.1657)"><tspan
         id="tspan469"
         y="0"
         x="0 1.8984381">TX</tspan></text>
<g
       id="g473"><g
         clip-path="url(#clipPath479)"
         id="g475"><path
           id="path481"
           style="fill:none;stroke:#000000;stroke-width:0.55900002;stroke-linecap:butt;stroke-linejoin:miter;stroke-miterlimit:2.61299992;stroke-dasharray:none;stroke-opacity:1"
           d="M 120.204,578.806 H 432.491 V 377.749 H 120.204 Z" /></g></g><text
       id="text485"
       style="font-variant:normal;font-weight:normal;font-size:7.76760006px;font-family:Arial;-inkscape-font-specification:Arial;writing-mode:lr-tb;fill:#000000;fill-opacity:1;fill-rule:nonzero;stroke:none"
       transform="matrix(1,0,0,-0.99882847,440.7654,561.3995)"><tspan
         id="tspan483"
         y="0"
         x="0 6.0424161 10.360425 16.837826 19.42366 23.741669 28.059679">Gnd(18)</tspan></text>
<path
       id="path487"
       style="fill:none;stroke:#000000;stroke-width:0.55900002;stroke-linecap:butt;stroke-linejoin:miter;stroke-miterlimit:2.61299992;stroke-dasharray:none;stroke-opacity:1"
       d="m 119.705,563.985 h 13.907 v -14.494 m -12.824,-86.754 h 15.726 v -16.312 m -16.271,-53.783 h 15.418 v -9.965" /><text
       id="text495"
       style="font-variant:normal;font-weight:normal;font-size:7.76760006px;font-family:Arial;-inkscape-font-specification:Arial;writing-mode:lr-tb;fill:#000000;fill-opacity:1;fill-rule:nonzero;stroke:none"
       transform="matrix(1,0,0,-0.99882847,78.0165,561.6289)"><tspan
         id="tspan489"
         y="0"
         x="0 6.0424161 11.649846 19.41667 22.002504 26.320513">GND(1)</tspan><tspan
         id="tspan491"
         y="86.90313"
         x="4.6139545 10.221385 20.1476 22.733435 27.051443">NC(4)</tspan><tspan
         id="tspan493"
         y="172.16963"
         x="2.4126165 8.4550323 12.773042 19.250443 21.836277 26.154285">Gnd(9)</tspan></text>
<path
       id="path497"
       style="fill:none;stroke:#000000;stroke-width:0.55900002;stroke-linecap:butt;stroke-linejoin:miter;stroke-miterlimit:2.61299992;stroke-dasharray:none;stroke-opacity:1"
       d="m 395.289,447.958 h -24.59 m -4.857,-18.328 h 4.886 v 30.906 h 60.263 m -60.607,-26.593 h 6.289" /><path
       id="path499"
       style="fill:#000000;fill-opacity:1;fill-rule:evenodd;stroke:none"
       d="m 370.384,435.507 c -0.862,0 -1.566,-0.702 -1.566,-1.564 0,-0.862 0.704,-1.564 1.566,-1.564 0.861,0 1.566,0.702 1.566,1.564 0,0.862 -0.705,1.564 -1.566,1.564" /><path
       id="path501"
       style="fill:none;stroke:#000000;stroke-width:0.55900002;stroke-linecap:butt;stroke-linejoin:miter;stroke-miterlimit:2.61299992;stroke-dasharray:none;stroke-opacity:1"
       d="m 391.03,425.381 v 9.362" /><path
       id="path503"
       style="fill:#000000;fill-opacity:1;fill-rule:evenodd;stroke:none"
       d="m 389.464,434.743 c 0,0.861 0.703,1.564 1.566,1.564 0.863,0 1.566,-0.703 1.566,-1.564 0,-0.86 -0.703,-1.564 -1.566,-1.564 -0.863,0 -1.566,0.704 -1.566,1.564" /><path
       id="path505"
       style="fill:none;stroke:#000000;stroke-width:0.55900002;stroke-linecap:butt;stroke-linejoin:miter;stroke-miterlimit:2.61299992;stroke-dasharray:none;stroke-opacity:1"
       d="m 250.531,418.49 h 11.305" /><text
       id="text509"
       style="font-variant:normal;font-weight:normal;font-size:6.21400023px;font-family:Arial;-inkscape-font-specification:Arial;writing-mode:lr-tb;fill:#000000;fill-opacity:1;fill-rule:nonzero;stroke:none"
       transform="matrix(1,0,0,-0.99882523,405.126,426.5227)"><tspan
         id="tspan507"
         y="0"
         x="0">V</tspan></text>
<text
       id="text513"
       style="font-variant:normal;font-weight:normal;font-size:3.10710001px;font-family:Arial;-inkscape-font-specification:Arial;writing-mode:lr-tb;fill:#000000;fill-opacity:1;fill-rule:nonzero;stroke:none"
       transform="matrix(1,0,0,-0.99880918,409.2707,425.2815)"><tspan
         id="tspan511"
         y="0"
         x="0 2.2433262">RX</tspan></text>
<text
       id="text517"
       style="font-variant:normal;font-weight:normal;font-size:6.21400023px;font-family:Arial;-inkscape-font-specification:Arial;writing-mode:lr-tb;fill:#000000;fill-opacity:1;fill-rule:nonzero;stroke:none"
       transform="matrix(1,0,0,-0.99882523,346.3709,535.5281)"><tspan
         id="tspan515"
         y="0"
         x="0">V</tspan></text>
<text
       id="text521"
       style="font-variant:normal;font-weight:normal;font-size:3.10710001px;font-family:Arial;-inkscape-font-specification:Arial;writing-mode:lr-tb;fill:#000000;fill-opacity:1;fill-rule:nonzero;stroke:none"
       transform="matrix(1,0,0,-0.99880918,350.5157,534.2869)"><tspan
         id="tspan519"
         y="0"
         x="0 2.2433262">RX</tspan></text>
<path
       id="path523"
       style="fill:none;stroke:#000000;stroke-width:0.55900002;stroke-linecap:butt;stroke-linejoin:miter;stroke-miterlimit:2.61299992;stroke-dasharray:none;stroke-opacity:1"
       d="m 408.719,422.444 v 2.333" /><text
       id="text533"
       style="font-variant:normal;font-weight:normal;font-size:7.76760006px;font-family:Arial;-inkscape-font-specification:Arial;writing-mode:lr-tb;fill:#000000;fill-opacity:1;fill-rule:nonzero;stroke:none"
       transform="matrix(1,0,0,-0.99882847,77.7039,459.5069)"><tspan
         id="tspan525"
         y="0"
         x="0 6.0424161 11.649846 19.41667 22.002504 26.320513">GND(5)</tspan><tspan
         id="tspan527"
         y="50.254044"
         x="7.0770602 12.684491 20.451315 23.037148 27.355158">NC(8)</tspan><tspan
         id="tspan529"
         y="32.734997"
         x="6.9403505 12.547781 20.314604 22.900438 27.218447">NC(7)</tspan><tspan
         id="tspan531"
         y="17.456127"
         x="6.9403505 12.547781 20.314604 22.900438 27.218447">NC(6)</tspan></text>
<path
       id="path535"
       style="fill:none;stroke:#000000;stroke-width:0.55900002;stroke-linecap:butt;stroke-linejoin:miter;stroke-miterlimit:2.61299992;stroke-dasharray:none;stroke-opacity:1"
       d="m 196.635,494.627 v -16.421 m -43.779,16.889 c 0.426,1.823 1.344,4.88 1.898,6.237 0.829,2.026 1.38,2.387 2.04,2.377 0.033,0 0.069,0.037 0.103,0.032 1.057,-0.168 1.86,-2.181 2.91,-6.056 0.131,-0.482 0.561,-2.677 0.824,-2.509 m 258.672,64.833 h 5.313 m -1.678,0.112 -1.063,-2.402 m 2.573,2.402 -1.063,-2.402 m -2.125,2.402 -1.063,-2.402 m -0.447,2.402 -1.063,-2.402 m 5.274,-171.707 h 5.314 m -1.678,0.112 -1.063,-2.402 m 2.573,2.402 -1.063,-2.402 m -2.125,2.402 -1.063,-2.402 m -0.447,2.402 -1.063,-2.402" /><text
       id="text539"
       style="font-variant:normal;font-weight:normal;font-size:7.76760006px;font-family:Arial;-inkscape-font-specification:Arial;writing-mode:lr-tb;fill:#000000;fill-opacity:1;fill-rule:nonzero;stroke:none"
       transform="matrix(1,0,0,-0.99882847,63.8566,509.4984)"><tspan
         id="tspan537"
         y="0"
         x="0 5.1802125 9.4982214 11.656837 15.974846 20.292854 24.610865 31.088266 33.674099 37.992107">Antenna(2)</tspan></text>
<text
       id="text543"
       style="font-variant:normal;font-weight:normal;font-size:7.75909996px;font-family:Arial;-inkscape-font-specification:Arial;writing-mode:lr-tb;fill:#000000;fill-opacity:1;fill-rule:nonzero;stroke:none"
       transform="matrix(1,0,0,-0.99992267,62.7737,492.3247)"><tspan
         id="tspan541"
         y="0"
         x="0 5.6020703 12.49991 18.536489 24.138559 31.897659 34.481441 38.795502">RFGND(3)</tspan></text>
<path
       id="path545"
       style="fill:none;stroke:#000000;stroke-width:0.55900002;stroke-linecap:butt;stroke-linejoin:miter;stroke-miterlimit:2.61299992;stroke-dasharray:none;stroke-opacity:1"
       d="M 403.536,409.65 H 298.725 M 422.422,547.816 H 431.7 M 406.989,397.232 h 3.977 v -9.504 h -3.977 z m -16.455,81.848 h 3.977 v -9.504 h -3.977 z m -193.93,15.253 v 1.983" /><path
       id="path547"
       style="fill:#000000;fill-opacity:1;fill-rule:evenodd;stroke:none"
       d="m 195.038,496.316 c 0,0.861 0.704,1.564 1.566,1.564 0.863,0 1.566,-0.703 1.566,-1.564 0,-0.86 -0.703,-1.564 -1.566,-1.564 -0.862,0 -1.566,0.704 -1.566,1.564" /><path
       id="path549"
       style="fill:none;stroke:#000000;stroke-width:0.55900002;stroke-linecap:butt;stroke-linejoin:miter;stroke-miterlimit:2.61299992;stroke-dasharray:none;stroke-opacity:1"
       d="m 412.236,547.708 h -13.611 m 19.957,-106.515 h 13.828 m -23.665,-39.199 h 15.558 v 17.055 h 6.864" /><path
       id="path551"
       style="fill:#000000;fill-opacity:1;fill-rule:evenodd;stroke:none"
       d="m 408.745,403.558 c -0.861,0 -1.566,-0.702 -1.566,-1.564 0,-0.862 0.705,-1.564 1.566,-1.564 0.862,0 1.566,0.702 1.566,1.564 0,0.862 -0.704,1.564 -1.566,1.564" /><path
       id="path553"
       style="fill:none;stroke:#000000;stroke-width:0.55900002;stroke-linecap:butt;stroke-linejoin:miter;stroke-miterlimit:2.61299992;stroke-dasharray:none;stroke-opacity:1"
       d="M 392.444,483.104 H 430.68" /><path
       id="path555"
       style="fill:#000000;fill-opacity:1;fill-rule:evenodd;stroke:none"
       d="m 392.444,484.668 c -0.862,0 -1.566,-0.702 -1.566,-1.564 0,-0.862 0.704,-1.564 1.566,-1.564 0.861,0 1.566,0.702 1.566,1.564 0,0.862 -0.705,1.564 -1.566,1.564" /><path
       id="path557"
       style="fill:none;stroke:#000000;stroke-width:0.55900002;stroke-linecap:butt;stroke-linejoin:miter;stroke-miterlimit:2.61299992;stroke-dasharray:none;stroke-opacity:1"
       d="m 392.418,479.339 v 24.551 m 38.464,-109.957 h -4.573 v -7.957 M 182.132,504.935 h 6.104 m -0.175,0.174 10.018,-5.922" /><path
       id="path559"
       style="fill:#000000;fill-opacity:1;fill-rule:evenodd;stroke:none"
       d="m 188.859,506.455 c -0.741,0.438 -1.706,0.192 -2.145,-0.549 -0.44,-0.742 -0.192,-1.705 0.55,-2.143 0.741,-0.438 1.705,-0.192 2.145,0.549 0.439,0.742 0.191,1.705 -0.55,2.143" /><path
       id="path561"
       style="fill:none;stroke:#000000;stroke-width:0.55900002;stroke-linecap:butt;stroke-linejoin:miter;stroke-miterlimit:2.61299992;stroke-dasharray:none;stroke-opacity:1"
       d="m 377.446,503.54 h 14.998 m 12.159,53.62 v -9.447" /><path
       id="path563"
       style="fill:#000000;fill-opacity:1;fill-rule:evenodd;stroke:none"
       d="m 406.169,547.713 c 0,-0.86 -0.703,-1.564 -1.566,-1.564 -0.863,0 -1.566,0.704 -1.566,1.564 0,0.86 0.703,1.564 1.566,1.564 0.863,0 1.566,-0.704 1.566,-1.564" /><path
       id="path565"
       style="fill:none;stroke:#000000;stroke-width:0.55900002;stroke-linecap:butt;stroke-linejoin:miter;stroke-miterlimit:2.61299992;stroke-dasharray:none;stroke-opacity:1"
       d="M 430.684,565.253 H 404.54 m 36.362,-55.326 h 39.713 M 440.456,424.6 h 12.755 m -11.855,108.465 h 39.207 m -79.071,23.965 h 6.447 m -6.184,2.683 h 6.447 m -3.63,0.239 v 5.492 m 17.273,-5.309 v 5.121" /><path
       id="path567"
       style="fill:#000000;fill-opacity:1;fill-rule:evenodd;stroke:none"
       d="m 420.279,565.256 c 0,0.861 0.703,1.564 1.566,1.564 0.863,0 1.566,-0.703 1.566,-1.564 0,-0.86 -0.703,-1.564 -1.566,-1.564 -0.863,0 -1.566,0.704 -1.566,1.564" /><path
       id="path569"
       style="fill:none;stroke:#000000;stroke-width:0.55900002;stroke-linecap:butt;stroke-linejoin:miter;stroke-miterlimit:2.61299992;stroke-dasharray:none;stroke-opacity:1"
       d="m 382.472,531.687 v -14.861 m -0.124,0.101 h 17.699 m -0.255,-0.101 v -12.272 m 0.2,0.31 h 32.754 m -39.739,26.823 v -5.695 m 39.428,0.113 h -39.584" /></g></svg>